# xmcd
#
# Track frame offsets:
#	150
#	19995
#	38743
#	54794
#	74878
#	92545
#	113224
#	127044
#	145175
#	162424
#	181483
#	198924
#	213438
#	234083
#	247256
#	266710
#	285255
#
# Disc length: 3980 seconds
#
# Revision: 1
# Processed by: cddbd v1.5.2PL0 Copyright (c) Steve Scherf et al.
# Submitted via: audiograbber 1.82.02
#
DISCID=f90f8a11
DTITLE=Various Artist - CB50702
DYEAR=2006
DGENRE=Karaoke
TTITLE0=Keith Urban - Once In A Lifetime
TTITLE1=Dierks Bentley - Every Mile A Memory
TTITLE2=Toby Keith - A Little Too Late
TTITLE3=Tim McGraw - I've Got Friends That Do
TTITLE4=Gary Allan - Life Ain't Always Beautiful
TTITLE5=Brooks and Dunn - Building Bridges
TTITLE6=Joe Nichols - Size Matters (Someday)
TTITLE7=Cross Candian Ragweed - This Time Around
TTITLE8=Rodney Atkins - If You're Going Through Hell (Before The Devil Even Kno
TTITLE8=ws)
TTITLE9=Rascal Flatts - My Wish
TTITLE10=Alan Jackson - Like Red On A Rose
TTITLE11=Jeff Bates - No Shame
TTITLE12=Brad Paisley - She's Everything
TTITLE13=Billy Currington - Why, Why, Why
TTITLE14=George Strait - The Seashores Of Old Mexico
TTITLE15=Lonestar - Mountains
TTITLE16=Jack Ingram - Love You
EXTD=
EXTT0=
EXTT1=
EXTT2=
EXTT3=
EXTT4=
EXTT5=
EXTT6=
EXTT7=
EXTT8=
EXTT9=
EXTT10=
EXTT11=
EXTT12=
EXTT13=
EXTT14=
EXTT15=
EXTT16=
PLAYORDER=
